<svg version="1.2" xmlns="http://www.w3.org/2000/svg" viewBox="0 0 24 24" width="24" height="24">
	<title>user-square-svgrepo-com-svg</title>
	<style>
		.s0 { fill: #9da5ac } 
	</style>
	<g id="SVGRepo_bgCarrier">
	</g>
	<g id="SVGRepo_tracerCarrier">
	</g>
	<g id="SVGRepo_iconCarrier">
		<path id="Layer" fill-rule="evenodd" class="s0" d="m7.3 2.4c1.2-0.3 2.8-0.4 4.7-0.4 1.9 0 3.5 0.1 4.7 0.4 1.4 0.3 2.4 0.8 3.3 1.6 0.8 0.9 1.3 1.9 1.6 3.3 0.3 1.2 0.4 2.8 0.4 4.7 0 1.9-0.1 3.5-0.4 4.7-0.3 1.4-0.8 2.4-1.6 3.3-0.9 0.8-1.9 1.3-3.3 1.6-1.2 0.3-2.8 0.4-4.7 0.4-1.9 0-3.5-0.1-4.7-0.4-1.4-0.3-2.4-0.8-3.3-1.6-0.8-0.9-1.3-1.9-1.6-3.3-0.3-1.2-0.4-2.8-0.4-4.7 0-1.9 0.1-3.5 0.4-4.7 0.3-1.4 0.8-2.4 1.6-3.3 0.9-0.8 1.9-1.3 3.3-1.6zm4.7 3.6c-2.2 0-4 1.8-4 4 0 2.2 1.8 4 4 4 2.2 0 4-1.8 4-4 0-2.2-1.8-4-4-4zm4.6 9.7c-1.2-0.5-2.7-0.7-4.6-0.7-1.9 0-3.4 0.2-4.6 0.7q-1.1 0.6-1.8 1.6c-0.3 0.6-0.2 1.3 0.4 1.7 0.5 0.3 1.1 0.5 1.7 0.7 1.1 0.2 2.5 0.3 4.3 0.3 1.8 0 3.2-0.1 4.3-0.3 0.6-0.2 1.2-0.4 1.7-0.7 0.6-0.4 0.7-1.1 0.4-1.7q-0.6-1-1.8-1.6z"/>
	</g>
</svg>