<svg version="1.2" xmlns="http://www.w3.org/2000/svg" viewBox="0 0 24 24" width="24" height="24">
	<title>user-circle-svgrepo-com-svg</title>
	<style>
		.s0 { fill: #9da5ac } 
	</style>
	<g id="SVGRepo_bgCarrier">
	</g>
	<g id="SVGRepo_tracerCarrier">
	</g>
	<g id="SVGRepo_iconCarrier">
		<path id="Layer" fill-rule="evenodd" class="s0" d="m2 12c0-5.5 4.5-10 10-10 5.5 0 10 4.5 10 10 0 5.5-4.5 10-10 10-5.5 0-10-4.5-10-10zm10-6c-2.2 0-4 1.8-4 4 0 2.2 1.8 4 4 4 2.2 0 4-1.8 4-4 0-2.2-1.8-4-4-4zm4.3 9.6c-1.1-0.5-2.5-0.6-4.3-0.6-1.7 0-3.2 0.1-4.3 0.6q-0.4 0.2-0.8 0.4c-0.7 0.5-0.7 1.6 0 2.2 1.4 1.1 3.2 1.8 5.1 1.8 2 0 3.8-0.7 5.1-1.9 0.7-0.6 0.8-1.6 0-2.1q-0.3-0.2-0.8-0.4z"/>
	</g>
</svg>