<svg version="1.2" xmlns="http://www.w3.org/2000/svg" viewBox="0 0 48 48" width="48" height="48">
	<title>github-svg</title>
	<style>
		.s0 { fill: #f2f2f2;stroke: #f2f2f2 } 
	</style>
	<g id="SVGRepo_bgCarrier">
	</g>
	<g id="SVGRepo_tracerCarrier">
	</g>
	<g id="SVGRepo_iconCarrier">
		<g id="Layer_2">
			<g id="invisible_box">
			</g>
			<g id="icons_Q2">
				<path id="Layer" class="s0" d="m24 1.9c-5.2-0.1-10.2 1.7-14.2 5.1-4 3.3-6.6 7.9-7.4 13.1-0.9 5.1 0.2 10.3 2.9 14.7 2.7 4.5 7 7.7 11.9 9.3 1 0.2 1.8-0.9 1.8-1.8v-2.9c-6 1.3-7.9-2.9-7.9-2.9q-0.1-0.5-0.4-0.9-0.2-0.5-0.5-0.9-0.2-0.4-0.6-0.7-0.3-0.4-0.7-0.7c-2-1.4 0.1-1.3 0.1-1.3q0.5 0 1 0.2 0.5 0.1 0.9 0.4 0.4 0.3 0.8 0.6 0.3 0.4 0.6 0.8c1.7 2.9 5.5 2.6 6.7 2.1q0-0.4 0-0.7 0-0.4 0-0.8 0.1-0.4 0.2-0.7 0.1-0.4 0.3-0.7c-6.8-1.2-10.5-5.2-10.5-10.6q0-1 0.2-2.1 0.1-1 0.5-2 0.4-1 0.9-1.9 0.6-0.8 1.3-1.6-0.4-0.7-0.6-1.6-0.2-0.8-0.1-1.6 0-0.9 0.3-1.7 0.2-0.8 0.7-1.5 0.9 0 1.8 0.2 0.9 0.2 1.7 0.6 0.8 0.4 1.6 0.9 0.7 0.5 1.3 1.2 0.6-0.2 1.3-0.4 0.7-0.1 1.4-0.2 0.6-0.1 1.3-0.2 0.7 0 1.4 0 0.7 0 1.4 0 0.6 0 1.3 0.1 0.7 0.1 1.4 0.3 0.6 0.1 1.3 0.3 0.6-0.7 1.4-1.2 0.7-0.5 1.5-0.8 0.8-0.4 1.7-0.6 0.9-0.2 1.8-0.2 0.5 0.7 0.7 1.5 0.3 0.8 0.3 1.6 0.1 0.9-0.1 1.7-0.1 0.8-0.5 1.6 0.7 0.8 1.2 1.7 0.6 0.8 0.9 1.8 0.4 1 0.6 2 0.1 1.1 0.1 2.1c0 5.4-3.7 9.4-10.5 10.6q0.2 0.3 0.3 0.7 0.1 0.3 0.2 0.7 0 0.4 0 0.8 0 0.3 0 0.7v6.2q0 0.4 0.1 0.7 0.2 0.4 0.5 0.6 0.2 0.3 0.6 0.4 0.3 0.1 0.7 0.1c4.8-1.7 8.9-5 11.5-9.4 2.6-4.4 3.6-9.6 2.8-14.6-0.8-5-3.4-9.6-7.3-13-3.9-3.3-8.8-5.1-13.9-5.2z"/>
			</g>
		</g>
	</g>
</svg>